{"title":"Attack on Titan - S01E15 1080p .MP4","uid":8810743,"size":801816837,"categoryP":"video","categoryS":"hd___tv_shows","magnet":"?xt=urn:btih:3cc32b53ae51886ab359d05bf5f305ef0edcb3b5&amp;dn=Attack+on+Titan+-+S01E15+1080p+.MP4&amp;tr=udp%3A%2F%2Ftracker.openbittorrent.com%3A80&amp;tr=udp%3A%2F%2Fopen.demonii.com%3A1337&amp;tr=udp%3A%2F%2Ftracker.coppersurfer.tk%3A6969&amp;tr=udp%3A%2F%2Fexodus.desync.com%3A6969","seeders":1,"leechers":0,"uploader":"Danimal1q2w3","files":1,"time":1376452505,"description":"source:\n &lt;a href=&quot;\nhttp://thepiratebay.se/torrent/8718250/Attack_on_Titan_S01E15_Special_Ops_Squad_%281920x1080%29_%5BPhr0stY%5D.m&quot; rel=&quot;nofollow&quot; target=&quot;_NEW&quot;&gt;\nhttp://thepiratebay.se/torrent/8718250/Attack_on_Titan_S01E15_Special_Ops_Squad_%281920x1080%29_%5BPhr0stY%5D.m&lt;/a&gt;\n\nVideo\nID                                       : 1\nFormat                                   : AVC\nFormat/Info                              : Advanced Video Codec\nFormat profile                           : &lt;a class=&quot;__cf_email__&quot; href=&quot;/cdn-cgi/l/email-protection&quot; data-cfemail=&quot;9ddffceef8f1f4f3f8ddd1acb3ae&quot;&gt;[email&amp;#160;protected]&lt;/a&gt;&lt;script cf-hash='f9e31' type=&quot;text/javascript&quot;&gt;\n/* &lt;![CDATA[ */!function(){try{var t=&quot;currentScript&quot;in document?document.currentScript:function(){for(var t=document.getElementsByTagName(&quot;script&quot;),e=t.length;e--;)if(t[e].getAttribute(&quot;cf-hash&quot;))return t[e]}();if(t&amp;&amp;t.previousSibling){var e,r,n,i,c=t.previousSibling,a=c.getAttribute(&quot;data-cfemail&quot;);if(a){for(e=&quot;&quot;,r=parseInt(a.substr(0,2),16),n=2;a.length-n;n+=2)i=parseInt(a.substr(n,2),16)^r,e+=String.fromCharCode(i);e=document.createTextNode(e),c.parentNode.replaceChild(e,c)}}}catch(u){}}();/* ]]&gt; */&lt;/script&gt;\nFormat settings, CABAC                   : No\nFormat settings, ReFrames                : 2 frames\nCodec ID                                 : avc1\nCodec ID/Info                            : Advanced Video Coding\nDuration                                 : 24mn 6s\nBit rate mode                            : Variable\nBit rate                                 : 4 179 Kbps\nWidth                                    : 1 920 pixels\nHeight                                   : 1 088 pixels\nOriginal height                          : 1 080 pixels\nDisplay aspect ratio                     : 16:9\nOriginal display aspect ratio            : 16:9\nFrame rate mode                          : Variable\nFrame rate                               : 23.976 fps\nMinimum frame rate                       : 23.974 fps\nMaximum frame rate                       : 23.981 fps\nColor space                              : YUV\nChroma subsampling                       : 4:2:0\nBit depth                                : 8 bits\nScan type                                : Progressive\nBits/(Pixel*Frame)                       : 0.083\nStream size                              : 721 MiB (94%)\nLanguage                                 : English\nEncoded date                             : UTC 2013-08-13 16:51:36\nTagged date                              : UTC 2013-08-13 16:51:44\n\nAudio\nID                                       : 2\nFormat                                   : AAC\nFormat/Info                              : Advanced Audio Codec\nFormat profile                           : LC\nCodec ID                                 : 40\nDuration                                 : 24mn 7s\nBit rate mode                            : Variable\nBit rate                                 : 251 Kbps\nMaximum bit rate                         : 309 Kbps\nChannel(s)                               : 2 channels\nChannel positions                        : Front: L R\nSampling rate                            : 48.0 KHz\nCompression mode                         : Lossy\nStream size                              : 43.3 MiB (6%)\nLanguage                                 : English\nEncoded date                             : UTC 2013-08-13 16:51:44\nTagged date                              : UTC 2013-08-13 16:51:45\n","torrent":{"xt":"urn:btih:3cc32b53ae51886ab359d05bf5f305ef0edcb3b5","amp;dn":"Attack+on+Titan+-+S01E15+1080p+.MP4","amp;tr":["udp%3A%2F%2Ftracker.openbittorrent.com%3A80","udp%3A%2F%2Fopen.demonii.com%3A1337","udp%3A%2F%2Ftracker.coppersurfer.tk%3A6969","udp%3A%2F%2Fexodus.desync.com%3A6969"],"infoHash":"3cc32b53ae51886ab359d05bf5f305ef0edcb3b5","infoHashBuffer":{"type":"Buffer","data":[60,195,43,83,174,81,136,106,179,89,208,91,245,243,5,239,14,220,179,181]},"announce":[],"urlList":[]}}